<svg width="70" height="52" viewBox="0 0 57 52" fill="none" xmlns="http://www.w3.org/2000/svg">
<g clip-path="url(#clip0_4_57)">
<path d="M0 0H5V34.5C5 35.8807 3.88071 37 2.5 37V37C1.11929 37 0 35.8807 0 34.5V0Z" fill="#FF4C00"/>
<path d="M2 4.99983L2.04082 -1.2517e-06L53.8287 0.422759C55.2093 0.434029 56.3194 1.56242 56.3082 2.94308V2.94308C56.2969 4.32375 55.1685 5.43386 53.7878 5.42259L2 4.99983Z" fill="#FF4C00"/>
<path d="M28.0533 10.451C28.056 9.09734 29.1555 8.0022 30.5091 8.00492V8.00492C31.9169 8.00774 33.0559 9.15126 33.053 10.559L33.005 34.51C33.0022 35.8907 31.8807 37.0077 30.5 37.005V37.005C29.1193 37.0022 28.0022 35.8807 28.005 34.4999L28.0533 10.451Z" fill="white"/>
<path d="M49.0533 10.451C49.056 9.09734 50.1555 8.0022 51.5091 8.00492V8.00492C52.9169 8.00774 54.0559 9.15126 54.053 10.559L54.005 34.51C54.0022 35.8907 52.8807 37.0077 51.5 37.005V37.005C50.1193 37.0022 49.0022 35.8807 49.005 34.4999L49.0533 10.451Z" fill="white"/>
<path d="M48.9883 19.9978C50.3419 19.9971 51.4398 21.0939 51.4405 22.4476V22.4476C51.4412 23.8554 50.3005 24.9972 48.8927 24.9979L32.8985 25.0058C31.5178 25.0065 30.398 23.8878 30.3973 22.5071V22.5071C30.3966 21.1264 31.5153 20.0065 32.896 20.0058L48.9883 19.9978Z" fill="white"/>
<path d="M2 17.9998L2.04082 13L22.7162 13.1688C24.0968 13.18 25.2069 14.3084 25.1957 15.6891V15.6891C25.1844 17.0698 24.056 18.1799 22.6753 18.1686L2 17.9998Z" fill="#FF4C00"/>
<path d="M7.23295 51V40.8182H13.3381V41.9119H8.46591V45.3523H12.8807V46.446H8.46591V51H7.23295ZM15.2907 51V43.3636H16.464V51H15.2907ZM15.8873 42.0909C15.6586 42.0909 15.4614 42.013 15.2956 41.8572C15.1332 41.7015 15.052 41.5142 15.052 41.2955C15.052 41.0767 15.1332 40.8894 15.2956 40.7337C15.4614 40.5779 15.6586 40.5 15.8873 40.5C16.1159 40.5 16.3115 40.5779 16.4739 40.7337C16.6396 40.8894 16.7225 41.0767 16.7225 41.2955C16.7225 41.5142 16.6396 41.7015 16.4739 41.8572C16.3115 42.013 16.1159 42.0909 15.8873 42.0909ZM21.9339 43.3636V44.358H17.9766V43.3636H21.9339ZM19.13 41.5341H20.3033V48.8125C20.3033 49.1439 20.3513 49.3925 20.4474 49.5582C20.5469 49.7206 20.6728 49.83 20.8253 49.8864C20.9811 49.9394 21.1451 49.9659 21.3175 49.9659C21.4467 49.9659 21.5528 49.9593 21.6357 49.946C21.7185 49.9295 21.7848 49.9162 21.8345 49.9062L22.0732 50.9602C21.9936 50.9901 21.8826 51.0199 21.7401 51.0497C21.5975 51.0829 21.4169 51.0994 21.1982 51.0994C20.8667 51.0994 20.5419 51.0282 20.2237 50.8857C19.9089 50.7431 19.647 50.526 19.4382 50.2344C19.2327 49.9427 19.13 49.5748 19.13 49.1307V41.5341Z" fill="white"/>
<path d="M24.022 51V40.8182H25.255V45.3523H30.6839V40.8182H31.9169V51H30.6839V46.446H25.255V51H24.022ZM39.0387 47.8778V43.3636H40.212V51H39.0387V49.7074H38.9592C38.7802 50.0952 38.5018 50.425 38.1239 50.6967C37.7461 50.9652 37.2688 51.0994 36.6921 51.0994C36.2148 51.0994 35.7906 50.995 35.4194 50.7862C35.0482 50.5741 34.7565 50.2559 34.5444 49.8317C34.3323 49.4041 34.2262 48.8655 34.2262 48.2159V43.3636H35.3995V48.1364C35.3995 48.6932 35.5553 49.1373 35.8668 49.4688C36.1817 49.8002 36.5827 49.9659 37.07 49.9659C37.3616 49.9659 37.6583 49.8913 37.9599 49.7422C38.2648 49.593 38.52 49.3643 38.7255 49.0561C38.9343 48.7479 39.0387 48.3551 39.0387 47.8778ZM42.5201 51V40.8182H43.6934V44.5767H43.7928C43.879 44.4441 43.9983 44.2751 44.1507 44.0696C44.3065 43.8608 44.5286 43.6752 44.8169 43.5128C45.1086 43.3471 45.503 43.2642 46.0002 43.2642C46.6432 43.2642 47.2099 43.425 47.7005 43.7464C48.191 44.0679 48.5738 44.5237 48.8489 45.1136C49.124 45.7036 49.2615 46.3996 49.2615 47.2017C49.2615 48.0104 49.124 48.7114 48.8489 49.3047C48.5738 49.8946 48.1926 50.352 47.7054 50.6768C47.2182 50.9983 46.6564 51.1591 46.0201 51.1591C45.5295 51.1591 45.1368 51.0779 44.8418 50.9155C44.5468 50.7498 44.3198 50.5625 44.1607 50.3537C44.0016 50.1416 43.879 49.9659 43.7928 49.8267H43.6536V51H42.5201ZM43.6735 47.1818C43.6735 47.7585 43.758 48.2673 43.927 48.7081C44.0961 49.1456 44.343 49.4886 44.6678 49.7372C44.9926 49.9825 45.3903 50.1051 45.861 50.1051C46.3515 50.1051 46.7608 49.9759 47.089 49.7173C47.4204 49.4555 47.669 49.1042 47.8347 48.6634C48.0037 48.2192 48.0882 47.7254 48.0882 47.1818C48.0882 46.6449 48.0054 46.161 47.8397 45.7301C47.6773 45.2959 47.4303 44.9529 47.0989 44.701C46.7708 44.4458 46.3581 44.3182 45.861 44.3182C45.3837 44.3182 44.9827 44.4392 44.6578 44.6811C44.333 44.9197 44.0878 45.2545 43.9221 45.6854C43.7563 46.1129 43.6735 46.6117 43.6735 47.1818Z" fill="#FF4D00"/>
</g>
<defs>
<clipPath id="clip0_4_57">
<rect width="57" height="52" fill="white"/>
</clipPath>
</defs>
</svg>
